<svg width="24" height="24" viewBox="0 0 24 24" fill="none" xmlns="http://www.w3.org/2000/svg">
<path d="M6.24999 10.02L11.97 11.29C12.34 11.37 12.63 11.66 12.71 12.03L13.98 17.75L19.25 4.75L6.24999 10.02ZM11.39 12.69L11.31 12.61C10.76 12.92 10.36 12.92 9.69999 12.78L2.75999 11.24C2.34999 11.15 2.03999 10.8 1.99999 10.37C1.96999 9.95 2.20999 9.55 2.60999 9.39L20.66 2.07C21.02 1.92 21.44 2.01 21.72 2.28C21.99 2.56 22.08 2.98 21.93 3.34L14.61 21.39C14.45 21.79 14.05 22.03 13.63 22C13.2 21.96 12.85 21.65 12.76 21.23L11.23 14.32C11.08 13.64 11.08 13.24 11.39 12.69Z" fill="#2B2D33"/>
</svg>
