<svg width="24" height="24" viewBox="0 0 24 24" fill="none" xmlns="http://www.w3.org/2000/svg">
<path d="M19.97 13C19.6 15.96 17.6 18.68 14.03 19.81L13.98 19.72C14.88 18.9 15.48 17.92 15.68 16.8C15.94 15.37 15.97 14.28 16 13H19.97ZM4.06 13H8.03C8.06 14.28 8.09 15.37 8.35 16.8C8.55 17.92 9.15 18.9 10.05 19.72L10 19.81C6.43 18.68 4.43 15.96 4.06 13ZM19.97 11H16C15.97 9.72 15.94 8.63 15.68 7.2C15.48 6.08 14.88 5.1 13.98 4.28L14.03 4.19C17.6 5.32 19.6 8.04 19.97 11ZM10.01 11C10.05 8.56 10.37 6.33 11.02 4.06C11.34 4.02 11.67 4 12 4C12.33 4 12.66 4.02 12.98 4.06C13.63 6.32 13.96 8.55 14 11H10.01ZM4.06 11C4.43 8.04 6.43 5.32 10 4.19L10.05 4.28C9.15 5.1 8.55 6.08 8.35 7.2C8.08 8.63 8.06 9.72 8.03 11H4.06ZM12 20C11.67 20 11.34 19.98 11.01 19.94C10.45 17.42 10.13 15.17 10.03 13H13.97C13.87 15.22 13.55 17.48 12.99 19.94C12.67 19.98 12.34 20 12 20ZM12 22C17.52 22 22 17.52 22 12C22 6.48 17.52 2 12 2C6.48 2 2 6.48 2 12C2 17.52 6.48 22 12 22Z" fill="#2B2D33"/>
</svg>
